<svg viewBox="0 0 73 73" fill="none" xmlns="http://www.w3.org/2000/svg"><path d="M60.17 36.535a1.348 1.348 0 0 0-1.145 1.516c.183 1.318.276 2.646.276 3.976a28.304 28.304 0 1 1-28.304-28.304c1.28 0 2.559.086 3.828.256a1.36 1.36 0 0 0 .357-2.696 31 31 0 1 0 26.512 26.37 1.348 1.348 0 0 0-1.523-1.118z" fill="#020842"/><path d="M30.5 27.616c.778 0 1.554.059 2.322.177.357.055.722-.03 1.014-.237.292-.207.488-.518.544-.865a1.295 1.295 0 0 0-.244-.985 1.369 1.369 0 0 0-.89-.528A18.29 18.29 0 0 0 30.5 25c-3.461 0-6.845.997-9.723 2.865a17.117 17.117 0 0 0-6.445 7.63 16.548 16.548 0 0 0-.996 9.821 16.854 16.854 0 0 0 4.79 8.704 17.667 17.667 0 0 0 8.96 4.652 17.98 17.98 0 0 0 10.111-.967 17.4 17.4 0 0 0 7.854-6.261 16.656 16.656 0 0 0 2.686-12.406 1.304 1.304 0 0 0-.553-.841 1.378 1.378 0 0 0-1.004-.216c-.35.06-.662.252-.868.534a1.278 1.278 0 0 0-.226.974 14.093 14.093 0 0 1-2.273 10.502 14.724 14.724 0 0 1-6.646 5.298 15.213 15.213 0 0 1-8.556.818 14.948 14.948 0 0 1-7.582-3.936 14.262 14.262 0 0 1-4.052-7.365 14.002 14.002 0 0 1 .843-8.311 14.482 14.482 0 0 1 5.453-6.455 15.12 15.12 0 0 1 8.227-2.425z" fill="#020842"/><path d="M55 2 39.5 18l.5 16h16l15-16H55V2z" fill="#0044EB"/><path d="M72.9 17.316a1.366 1.366 0 0 0-.496-.614 1.32 1.32 0 0 0-.746-.23H56.902V1.373c0-.271-.077-.537-.224-.763a1.313 1.313 0 0 0-2.063-.205L38.518 16.877a1.389 1.389 0 0 0-.396.968v15.902l-7.653 7.838c-.14.123-.255.274-.335.444a1.398 1.398 0 0 0 .259 1.569 1.34 1.34 0 0 0 1 .401 1.317 1.317 0 0 0 .967-.479l7.66-7.83h15.54c.356-.002.696-.148.947-.406l16.097-16.471a1.403 1.403 0 0 0 .295-1.496zm-32.095 1.098L54.219 4.688v12.587L40.805 31.002V18.414zm14.2 14.53H42.702l13.414-13.727H68.42L55.004 32.944z" fill="#020842"/><path fill="#fff" d="m54.408 17 2.1 2.058L42.1 33.764 40 31.706z"/></svg>