<svg viewBox="0 0 61 77" fill="none" xmlns="http://www.w3.org/2000/svg"><path d="M29 10c-12 2-15.333 12.833-15.5 18H21c-.167-1.667.3-5.6 3.5-8 4-3 7.5-4 13-1 4.4 2.4 5.5 7.333 5.5 9.5h7.5L49 21c-1.667-4.5-8-13-20-11z" fill="#0044EB"/><path fill-rule="evenodd" clip-rule="evenodd" d="M22.014 65.704c.818 4.357.391 6.072-.574 9.246h30.656c-.277-.825-.596-1.73-.932-2.679-2.086-5.903-4.761-13.473-2.853-19.498.992-3.132 3.615-6.195 5.298-9.115.01-.017.02-.035.032-.052 4.117-6.365 5.666-12.618 5.27-18.26-.73-10.429-8.062-18.633-17.79-21.828-6.152-2.02-13.345-2.078-20.675.565-6.073 2.19-9.95 5.999-11.788 12.508-2.273 8.05-1.717 9.11-1.274 9.954.419.8.772 1.473.182 3.826-1.031 4.109-5.656 7.01-5.533 10.331.93.558 2.417 1.11 3.416 1.737l-.001.002a1.012 1.012 0 0 1 .46.687c.343 1.89-.139 2.878-.538 3.697-.28.574-.481.987.802 2.424l-.002.002a1.023 1.023 0 0 1 .157 1.133c-.06.121-.142.23-.242.319-.655.576-.517.76-.316 1.03.386.516.843 1.127.996 2.145.27 1.797-.61 3.212-.243 5.023.461 2.274 5.324 1.514 7.9 1.29 4.826-.423 6.702.773 7.592 5.513zm-2.886 9.884c1.093-3.623 1.727-5.075.895-9.508-.334-1.776-.744-2.849-1.475-3.378-1.04-.754-3.036-.565-4.836-.39-3.53.344-8.397.819-9.173-3.002-.465-2.289.415-3.824.219-5.128-.076-.506-.364-.89-.607-1.216-.752-1.008-1.302-1.744-.111-3.098-2.344-3.056.145-3.422-.06-5.922-1.083-.582-2.639-1.16-3.528-1.86a1.02 1.02 0 0 1-.376-.641c-.453-2.798 1.216-4.964 2.922-7.177 1.102-1.428 2.22-2.88 2.6-4.393.401-1.598.214-1.954-.007-2.377-.611-1.165-1.38-2.63 1.116-11.467C8.726 8.879 13.095 4.558 19.764 2.154c7.774-2.803 15.425-2.735 21.984-.58 10.512 3.451 18.397 12.36 19.187 23.629.425 6.053-1.214 12.73-5.577 19.486-.576 1.02-1.269 2.044-1.974 3.089-1.264 1.872-2.573 3.81-3.145 5.613-1.7 5.365.85 12.577 2.838 18.2.503 1.425.971 2.75 1.35 3.997a1.031 1.031 0 0 1-.096.96 1.017 1.017 0 0 1-.845.452H20.07a1.01 1.01 0 0 1-.842-.454 1.033 1.033 0 0 1-.1-.958zM32.47 27.705a.76.76 0 0 1 .357.658.78.78 0 0 1-.459.711.76.76 0 0 1-.83-.138c-.656-.61.09-1.717.932-1.231zm2.37-6.244a1.005 1.005 0 0 1 1.38-.364 1.03 1.03 0 0 1 .374 1.389l-2.354 4.113c1.483 1.863.132 4.588-2.18 4.588-2.413 0-3.71-2.916-2.058-4.733a2.768 2.768 0 0 1 2.486-.881l2.353-4.112h-.002zm-18.25-.931 4.68 2.727c-.599 1.286-.966 2.67-1.084 4.085l-5.405-.004c.135-2.37.75-4.688 1.81-6.808zm5.957-6.747 2.703 4.723a12.007 12.007 0 0 0-2.964 2.985l-4.681-2.727a17.456 17.456 0 0 1 4.943-4.98zm8.496-2.834v5.453a11.737 11.737 0 0 0-4.038 1.083l-2.702-4.724a17.062 17.062 0 0 1 6.741-1.813zm8.763 1.83-2.702 4.724a11.74 11.74 0 0 0-4.029-1.093v-5.46c2.344.139 4.636.76 6.732 1.828zm6.676 6.004L41.8 21.51a12.003 12.003 0 0 0-2.945-2.98l2.702-4.725a17.49 17.49 0 0 1 4.923 4.978zm2.822 8.734h-5.4a12.029 12.029 0 0 0-1.091-4.24l4.681-2.728a17.448 17.448 0 0 1 1.81 6.968zm2.042.655.004.369c0 .271-.107.532-.298.724-.19.192-.448.3-.718.3h-7.417v-.004a1.004 1.004 0 0 1-.72-.303 1.021 1.021 0 0 1-.292-.73 10.037 10.037 0 0 0-.694-3.842 9.966 9.966 0 0 0-2.106-3.277 9.863 9.863 0 0 0-3.193-2.207 9.791 9.791 0 0 0-10.82 2.09 9.961 9.961 0 0 0-2.16 3.24 10.036 10.036 0 0 0-.757 3.83h-.005c0 .272-.106.531-.296.723-.19.191-.447.299-.715.299l-7.419-.007c-.268 0-.525-.107-.715-.299a1.025 1.025 0 0 1-.296-.722 19.575 19.575 0 0 1 5.626-13.74 19.222 19.222 0 0 1 13.59-5.736 19.219 19.219 0 0 1 13.646 5.606 19.572 19.572 0 0 1 5.755 13.685z" fill="#020842"/><path d="m16 19 6 3.5M23.195 12.783 26 18" stroke="#fff" stroke-width="2"/><path fill="#fff" d="M31 10h2v7h-2zM40.476 12l1.736.993-3.476 6.076L37 18.076zM47.17 18.275l1.144 1.91-6.007 3.594-1.143-1.91z"/></svg>