<svg viewBox="0 0 62 76" fill="none" xmlns="http://www.w3.org/2000/svg"><path d="M54.899 49.236h1.1a4.082 4.082 0 0 0 4.084-4.084 4.082 4.082 0 0 0-4.084-4.084l-15.41.009c4.327-6.994 4.57-20.162-2.372-25.022-1.908-1.365-4.425.012-4.533 2.114C32.4 35.4 23.566 42.005 16.199 42.005V69.56h2.152c1.177 0 2.305.192 3.386.584a9.437 9.437 0 0 1 2.86 1.597c1.76 1.397 3.874 2.315 6.16 2.315h17.867a4.217 4.217 0 0 0 4.209-4.218 4.217 4.217 0 0 0-4.209-4.218h3.032a4.103 4.103 0 1 0 0-8.207H54.9a4.088 4.088 0 0 0 4.084-4.084 4.09 4.09 0 0 0-4.084-4.094z" fill="#fff"/><path d="M12.96 39H1.906v35.734H12.96a3.24 3.24 0 0 0 3.24-3.241V42.24A3.24 3.24 0 0 0 12.96 39z" fill="#0044EB"/><path d="M12.96 37.892H1.905c-.656 0-1.187.531-1.187 1.187v35.733c0 .656.53 1.188 1.187 1.188h11.056a4.433 4.433 0 0 0 4.427-4.428v-.823c.58.033 2.076-.165 3.967.52 2.746.933 4.508 3.975 9.402 3.975h17.867c4.431 0 6.944-5.066 4.348-8.602 3.569-.917 5.134-5.137 3.02-8.154 3.994-.845 5.591-5.804 2.71-8.812 4.592-2.757 2.61-9.796-2.705-9.796l-13.412.009c3.792-7.96 3.179-20.001-3.677-24.8-2.683-1.918-6.254.003-6.408 2.992-1.122 15.066-8.4 22.13-15.41 22.683-.632-1.674-2.238-2.873-4.13-2.873zm2.053 33.68c0 1.132-.92 2.053-2.053 2.053H3.093V40.266h9.867c1.128 0 2.046.915 2.052 2.042l.001 29.264zm2.375-28.431c8.014-.698 16.259-8.474 17.482-24.91.06-1.172 1.514-2.03 2.666-1.203 6.106 4.273 6.229 16.66 2.044 23.424a1.189 1.189 0 0 0 1.01 1.812l15.411-.01c3.836.006 3.818 5.794-.003 5.794h-1.1c-1.571 0-1.57 2.375 0 2.375 3.826 0 3.84 5.803 0 5.803h-3.242c-1.572 0-1.57 2.375 0 2.375 3.859 0 3.854 5.831 0 5.831h-3.032c-1.572 0-1.57 2.375 0 2.375 3.998 0 3.992 6.062 0 6.062H30.757c-4.122 0-5.286-2.713-8.615-3.84-2.316-.841-4.168-.62-4.754-.655V43.14zM40.398 3.193V1.188a1.187 1.187 0 1 0-2.375 0v2.005a1.187 1.187 0 1 0 2.375 0zM56.382 10.797 57.8 9.38a1.187 1.187 0 1 0-1.679-1.68l-1.418 1.419a1.187 1.187 0 1 0 1.679 1.68zM23.72 10.797a1.187 1.187 0 0 0 0-1.679L22.3 7.7a1.187 1.187 0 1 0-1.679 1.679l1.419 1.418a1.187 1.187 0 0 0 1.679 0z" fill="#020842"/></svg>